#!OML:ASF F:\VICON\USERDATA\INSTALL\rory3\rory3.ASF
:FULLY-SPECIFIED
:DEGREES
27
root 1.1596748614403884 18.091255962683825 -7.248977607259105 -2.7775097366272785 -1.5564457868559731 1.0952779452213774
lfemur -4.041194516147451 -0.7487032411154599 -25.703603334336083
ltibia 24.49772671408894
lfoot -7.516901491174338 -0.2843909215177689
ltoes -2.8320837587856182
rfemur -23.509302440514887 -0.7222390482780856 19.787498629976074
rtibia 69.6578584110361
rfoot -8.528053748677802 -4.219824598324985
rtoes 4.423793457443279
lowerback 10.297892303819719 0.041910709624191855 -1.5418823594639977
upperback 0.576193604939694 0.07631045114145896 0.701139058334972
thorax -5.122950539845866 0.12847250834956547 1.8210384168257367
lowerneck -15.883339782868374 -2.748375170045004 -1.9308682946426383
upperneck 22.104584236725536 -3.389896748428021 0.1152787021256465
head 9.727272002467519 -1.7239157965629148 -0.048378525041763015
lclavicle -1.9498430613042277e-15 9.097545604474157e-16
lhumerus -31.294702175426227 0.11795209427740827 83.30071156325957
lradius 24.932145384408965
lwrist 3.5237844506089573
lhand -26.897184497176728 23.2493046835391
lfingers 7.12502
lthumb -0.13302818006414652 53.238509372842366
rclavicle -1.952003842576262e-15 9.079108141918525e-16
rhumerus -31.668330390329672 -26.087102018440063 -76.61563926718301
rradius 21.52247724612584
rwrist 10.521941607667326
rhand -17.40361635349919 22.10327917644834
rfingers 7.12502
rthumb 8.783642469253586 -7.773378945470693
28
root 1.1411683491635174 18.018666789950874 -6.556011227981015 -2.4781712399394973 -1.025031343922424 1.8103341448111205
lfemur -1.813379125779976 -0.6447918303728988 -26.757419885694905
ltibia 24.074286053687004
lfoot -8.538902747094058 -1.0139492820553078
ltoes -2.940226147904637
rfemur -26.943875745409724 -0.35734656534267195 19.20136308091152
rtibia 64.69967388512265
rfoot -11.102773215270947 -5.240492437560042
rtoes 2.010984508560642
lowerback 10.322547584063386 -0.24509564938794615 -2.229240429405573
upperback 0.5723347715685764 -0.49745487525873355 0.7924345034205293
thorax -5.173291472876997 -0.15073031094925904 2.4201103562538937
lowerneck -16.09701205351838 -2.710268200426909 -2.2471151881091482
upperneck 21.81838904764831 -3.314623738384405 0.27681926614304186
head 9.663229487901933 -1.6861770634199593 0.022103316702832457
lclavicle -1.9562204386511177e-15 9.052594521057419e-16
lhumerus -29.260295664315045 -1.9445028645004292 83.54678389380543
lradius 26.642152259724426
lwrist 4.273235381425755
lhand -27.007319164718687 23.42321254324575
lfingers 7.12502
lthumb -0.2897909326964691 53.61289853538363
rclavicle -1.9557245038778522e-15 9.044852500634052e-16
rhumerus -32.267962861763266 -24.982024836545435 -76.86712235085402
rradius 22.24628805838496
rwrist 9.375399918444197
rhand -17.339670944092298 21.701229662765297
rfingers 7.12502
rthumb 8.811467215106779 -8.202288657507369
29
root 1.1239546024622316 17.980688507937757 -6.035896347151352 -2.268842160899342 -1.3303357063141734 2.184823988959231
lfemur 0.5612078022993501 -0.20636202112876578 -27.42421030593851
ltibia 22.35537950190228
lfoot -8.817901590308143 -1.8039096197817424
ltoes -4.578837322092375
rfemur -29.490267039408838 0.27594417147895545 18.770849688592794
rtibia 57.15424586122103
rfoot -10.744565480481484 -8.370378580147598
rtoes 1.7465992014371334
lowerback 10.247217622516128 -0.30233607731665746 -2.635526051505451
upperback 0.6388634985819007 -0.7079090325101842 0.8137970326157472
thorax -4.975996742076913 -0.2586629494460989 2.733413975830242
lowerneck -16.306666107320073 -2.7660468802864058 -2.542553797156745
upperneck 21.81935134928266 -3.354499010149601 0.49927194613477804
head 9.737067393976357 -1.6953285571658443 0.09588137915015776
lclavicle -1.9587800227833705e-15 9.02274351932548e-16
lhumerus -27.151718855976387 -3.050626628210682 83.25897468141594
lradius 28.107834881325257
lwrist 5.693089860930154
lhand -27.177931952354047 23.83275981941061
lfingers 7.12502
lthumb -0.4686115321489466 54.27634879035608
rclavicle -1.952897717968405e-15 9.070888063795672e-16
rhumerus -32.649320504819336 -24.20127586352674 -76.94196587388521
rradius 22.7282540792605
rwrist 8.51064190802427
rhand -17.290637220101996 22.011903504084092
rfingers 7.12502
rthumb 8.988541867755647 -7.93554263754325
30
root 1.096462098290773 17.951269017594605 -5.508470925554411 -1.9305075469049007 -1.2350764504100806 2.5450805390909053
lfemur 3.2052920261210556 0.2750205810068147 -27.873202809726862
ltibia 19.44289439951755
lfoot -8.713627197847314 -3.034579810551323
ltoes -6.383263087513235
rfemur -30.463984872453096 1.0460931212277984 18.092223916359682
rtibia 46.68468193431836
rfoot -8.823130189432897 -12.333503713595867
rtoes 2.884049114359651
lowerback 9.951027268943774 -0.4408288192258202 -3.087279724538048
upperback 0.5940576256436954 -0.9643831643238094 0.8393057872804853
thorax -4.947673836553132 -0.3805524381623173 3.044529927458438
lowerneck -16.480253865484823 -2.754938170706777 -2.6373755382190835
upperneck 21.757119742452524 -3.3298657133519813 0.5480342575831177
head 9.73790158180143 -1.6734015245273637 0.11624034424550042
lclavicle -1.9560008046474743e-15 9.039993754388104e-16
lhumerus -25.348514320211528 -4.08747438301321 83.0137311753336
lradius 29.24244418551523
lwrist 6.679962199663152
lhand -27.268824857048305 24.765695953401977
lfingers 7.12502
lthumb -0.5863063558687731 55.27935995883651
rclavicle -1.955442022673833e-15 9.047450729312942e-16
rhumerus -32.83134256551066 -23.594250279779377 -76.9768049271869
rradius 23.150853936654535
rwrist 8.220731447293733
rhand -17.059023210551022 22.811012922593953
rfingers 7.12502
rthumb 9.30206707474549 -7.148791964705274
31
root 1.0567164800381834 17.94764999964566 -4.991259484753892 -1.5083165237118468 -1.0615841223464877 2.7839205785901826
lfemur 5.870646153021898 0.7662308023992814 -28.099959402770637
ltibia 15.74258195517498
lfoot -8.926676576809252 -3.346020789344707
ltoes -7.111972734301158
rfemur -29.991153142592168 2.3838054359149323 17.374355290979025
rtibia 33.892116522483235
rfoot -6.921237569338122 -16.567431706183452
rtoes 2.5703124091739316
lowerback 9.492602482967305 -0.5720660501251192 -3.347246562630848
upperback 0.600529718205415 -1.234325065145836 0.8761721378753902
thorax -4.786613933832257 -0.5145294462205912 3.4141047004165257
lowerneck -16.690491496936893 -2.738335950915362 -2.758565403028091
upperneck 21.68237180716473 -3.3021764636542184 0.7739864116361286
head 9.694821468965575 -1.6453550576242293 0.21564543188287302
lclavicle -1.955312906390736e-15 9.044511413326534e-16
lhumerus -24.017200972437323 -4.601070727500201 82.68832208533418
lradius 30.301440832354288
lwrist 6.8631630567823665
lhand -27.280876574596707 25.79278017476444
lfingers 7.12502
lthumb -0.7091029819141947 56.10033598687139
rclavicle -1.95412975281483e-15 9.059533770980226e-16
rhumerus -32.89599544743169 -23.31112833417706 -76.81575744481908
rradius 23.366865582113082
rwrist 8.085343118410329
rhand -17.045809166388185 22.762200694673282
rfingers 7.12502
rthumb 9.329969652306445 -7.240241842937556
32
root 0.9999050164118293 17.908869059580944 -4.440074633919215 -1.1615911062324213 -0.5682999833238356 3.225021032110773
lfemur 8.492426651569229 0.9803736983445996 -28.00898814723329
ltibia 12.467984223098142
lfoot -8.995040847455503 -2.5193726582163114
ltoes -6.053832303958844
rfemur -28.320144676035525 5.056954802320659 15.80638959407392
rtibia 21.22579828356522
rfoot -7.457767825418902 -20.710640883217813
rtoes 1.2439403661176436
lowerback 9.107484633858718 -0.7751108095888269 -3.8352656415670934
upperback 0.53050516643388 -1.5408656410435153 0.8566002681534073
thorax -4.722791590905925 -0.6616046109016298 3.6619736836350567
lowerneck -16.709108549577554 -2.7192211258455754 -2.8232176971084484
upperneck 21.763064328248845 -3.2711055614307596 0.8203694165050591
head 9.7071210521648 -1.6202821905931308 0.24730248346745062
lclavicle -1.957906248180875e-15 9.025922922794985e-16
lhumerus -23.049875608268465 -4.720391832367338 82.46970904838328
lradius 31.323446159361716
lwrist 7.03201621078783
lhand -27.124713639998152 26.399210597222048
lfingers 7.12502
lthumb -0.5676669698913481 56.66798765047348
rclavicle -1.9550868395140445e-15 9.05071101252208e-16
rhumerus -32.877041529032695 -23.249954502009444 -76.78943007457067
rradius 23.702813003887805
rwrist 7.799517291572244
rhand -17.071339325464947 22.414519363435677
rfingers 7.12502
rthumb 9.334638878048375 -7.621895779825093
33
root 0.9363944671185624 17.886079415601525 -3.7996129809902133 -0.9362947545843825 0.3865028529922814 3.5308633986550615
lfemur 10.392231978499684 0.49912670026187467 -27.665463585290365
ltibia 11.602071824246014
lfoot -8.91878657020746 -1.9945387361494606
ltoes -4.363326666153332
rfemur -27.220955408119444 7.365422047199971 14.503378549955356
rtibia 13.533020530965668
rfoot -10.296967095731507 -21.22765443611066
rtoes -1.811378297630577
lowerback 8.927320609544088 -1.028756257233666 -4.354758949419627
upperback 0.5443721510449526 -1.8759615997477428 0.9405628500610262
thorax -4.5954048074048925 -0.821026268783074 3.8978111236999937
lowerneck -16.75371750211291 -2.757345044707525 -3.006192350666819
upperneck 21.86278494119289 -3.333330340295432 0.9719862392365621
head 9.760665535046934 -1.6384574996466545 0.31048556328966725
lclavicle -1.9638286997065296e-15 8.978387544365739e-16
lhumerus -22.374267119252856 -4.357324372894426 82.35268120270216
lradius 31.97714813107828
lwrist 7.509804711706987
lhand -27.14484259906917 26.558423086002357
lfingers 7.12502
lthumb -0.6089739844776858 56.52349174685956
rclavicle -1.9532524485941007e-15 9.067603449971568e-16
rhumerus -32.8639124080149 -23.3143764998464 -76.68539824318987
rradius 23.894782132780442
rwrist 7.451867546078591
rhand -17.236841394821063 21.908539035956288
rfingers 7.12502
rthumb 9.217266176094007 -8.29112284522462
